<?xml version="1.0" standalone="no"?>
<!DOCTYPE svg PUBLIC "-//W3C//DTD SVG 20010904//EN"
 "http://www.w3.org/TR/2001/REC-SVG-20010904/DTD/svg10.dtd">
<svg version="1.0" xmlns="http://www.w3.org/2000/svg"
 width="1000.000000pt" height="1080.000000pt" viewBox="0 100 600.000000 1080.000000"
 preserveAspectRatio="xMidYMid meet">
<metadata>
Created by potrace 1.15, written by Peter Selinger 2001-2017
</metadata>
<g transform="translate(0.000000,1280.000000) scale(0.100000,-0.100000)"
fill="#000000" stroke="none">
<path d="M2316 12695 c-192 -53 -328 -201 -388 -422 -17 -62 -22 -114 -24
-256 l-4 -178 -32 -40 c-26 -32 -33 -51 -36 -98 -4 -52 0 -68 32 -135 38 -78
58 -97 123 -110 37 -8 46 -18 62 -66 29 -92 38 -195 31 -346 -6 -131 -10 -158
-32 -205 -61 -131 -175 -196 -493 -279 -190 -49 -282 -81 -343 -116 -176 -104
-228 -248 -219 -609 3 -145 8 -196 26 -260 26 -94 28 -139 7 -203 -31 -94
-116 -674 -116 -791 0 -19 -17 -69 -39 -115 -71 -146 -129 -425 -141 -676 -4
-96 -15 -206 -24 -245 -15 -65 -105 -365 -128 -427 -13 -34 -53 -60 -133 -86
-124 -40 -208 -99 -279 -196 -12 -17 -55 -74 -94 -128 -40 -53 -72 -103 -72
-111 0 -21 38 -47 68 -47 37 0 62 17 149 103 68 67 83 78 89 63 17 -44 -45
-324 -130 -591 -39 -121 -43 -143 -33 -165 14 -30 66 -39 89 -16 8 8 37 74 63
148 51 142 87 222 107 234 8 5 9 2 4 -12 -23 -57 -95 -327 -100 -374 -8 -66 7
-100 48 -115 43 -15 59 14 102 189 21 85 40 154 41 152 3 -3 -20 -186 -32
-263 -10 -56 52 -86 94 -44 19 19 25 41 72 276 26 128 36 118 38 -36 1 -100 8
-119 47 -119 36 0 45 24 60 157 28 265 31 277 88 411 76 177 90 231 91 337 0
78 3 94 23 122 40 56 97 190 187 438 92 254 112 305 168 425 71 153 87 231 87
420 0 87 6 154 19 215 11 50 29 158 41 240 11 83 24 157 27 165 4 8 12 -41 18
-110 41 -421 40 -363 6 -600 -16 -118 -35 -264 -41 -325 -6 -60 -31 -222 -56
-360 -108 -609 -144 -980 -144 -1515 0 -328 10 -538 51 -1045 47 -582 39 -731
-65 -1185 -79 -348 -90 -428 -90 -670 0 -279 3 -300 129 -883 107 -493 119
-602 97 -826 -9 -92 -9 -140 -1 -187 10 -56 8 -75 -20 -195 -69 -305 -112
-645 -90 -709 7 -20 23 -35 50 -47 31 -13 41 -25 49 -54 12 -45 48 -82 108
-110 26 -12 63 -34 82 -48 26 -19 49 -26 85 -28 28 -1 70 -4 95 -8 93 -13 153
62 175 222 8 54 21 123 30 153 22 73 14 301 -15 455 -49 263 -71 409 -81 540
-7 93 -21 177 -40 250 -61 233 -62 340 -4 585 135 573 157 683 162 810 3 76
-1 196 -11 305 -9 99 -16 215 -16 259 0 76 2 83 41 148 60 100 117 238 152
368 l30 115 2 315 c2 358 -3 322 108 745 37 138 73 283 82 322 24 118 45 298
45 390 0 48 5 115 11 150 11 64 11 64 43 61 30 -3 31 -5 38 -63 3 -33 11 -139
17 -235 16 -252 22 -286 134 -671 93 -319 105 -421 98 -814 -4 -240 32 -390
154 -635 l67 -135 -8 -185 c-5 -102 -8 -279 -9 -395 0 -209 1 -210 37 -355 21
-80 58 -242 83 -360 26 -118 53 -244 60 -280 23 -104 18 -184 -25 -407 -23
-115 -52 -300 -66 -413 -13 -113 -35 -268 -49 -345 -53 -309 -57 -440 -16
-580 12 -38 21 -93 21 -121 0 -61 38 -144 81 -175 41 -29 90 -35 130 -15 22
11 36 13 43 6 19 -19 54 -10 95 24 23 19 55 37 72 41 42 9 117 83 125 123 5
24 13 32 35 37 91 20 91 196 2 600 -43 190 -47 223 -48 350 -1 77 -5 203 -9
280 -12 205 12 369 115 810 69 293 96 447 110 627 21 271 -11 561 -98 898 -59
228 -58 224 -78 585 -17 309 -17 310 4 425 26 145 47 350 62 600 15 251 6 942
-15 1235 -25 351 -32 406 -85 675 -57 291 -82 455 -111 727 -11 106 -25 214
-31 240 -6 27 -11 82 -10 123 1 81 38 480 45 487 2 2 9 -36 16 -84 7 -48 24
-149 37 -223 15 -79 29 -200 33 -290 11 -209 34 -316 103 -465 31 -66 90 -215
130 -330 110 -308 143 -389 218 -515 16 -28 19 -46 15 -94 -6 -84 9 -162 50
-258 78 -180 103 -277 129 -507 9 -74 21 -141 27 -148 13 -17 52 -17 66 0 5 6
13 66 17 132 8 118 8 119 21 77 7 -23 26 -108 43 -188 16 -80 35 -152 42 -160
15 -19 64 -18 83 2 20 19 20 5 -4 175 -12 78 -19 143 -18 145 2 2 22 -70 43
-159 42 -171 59 -203 98 -191 44 13 52 31 51 107 -1 53 -11 104 -39 192 -21
66 -43 139 -51 163 -7 23 -9 42 -5 42 12 0 73 -138 115 -260 20 -57 44 -112
53 -122 19 -21 62 -23 88 -4 22 16 21 22 -49 251 -71 231 -127 499 -111 526 5
7 33 -14 79 -58 97 -95 123 -113 162 -113 25 0 38 7 50 25 15 23 15 27 -5 61
-36 61 -173 235 -228 290 -32 32 -69 58 -100 69 -131 49 -200 79 -215 97 -10
11 -27 52 -38 91 -11 40 -43 142 -69 227 -47 150 -49 160 -55 310 -10 275 -65
563 -141 740 -33 77 -38 103 -56 265 -32 307 -77 569 -114 676 -14 39 -14 49
10 143 32 130 44 289 33 457 -13 205 -48 300 -144 388 -78 72 -143 99 -398
166 -214 57 -344 109 -434 175 -85 61 -119 197 -109 438 8 202 40 292 107 292
37 0 102 72 124 137 30 86 22 128 -41 237 -8 13 -13 63 -13 136 0 432 -118
638 -410 719 -88 25 -255 27 -334 6z m295 -20 c209 -44 341 -172 393 -380 18
-71 36 -255 36 -374 0 -78 2 -88 33 -135 26 -42 32 -60 31 -106 -1 -92 -69
-200 -126 -200 -59 0 -100 -78 -114 -217 l-7 -63 -89 -85 c-48 -46 -110 -97
-136 -112 -42 -25 -56 -28 -142 -28 -118 0 -174 23 -272 114 -94 86 -107 108
-123 203 -8 45 -20 97 -26 115 -13 39 -53 73 -86 73 -51 0 -133 126 -133 206
0 33 26 93 53 122 20 22 22 33 23 190 0 134 5 184 22 254 80 327 338 491 663
423z m-326 -1672 c52 -35 124 -53 209 -53 109 0 160 25 269 129 l84 81 7 -95
c9 -129 31 -240 56 -280 49 -80 145 -137 330 -199 128 -43 133 -46 104 -57
-46 -18 -204 -5 -344 29 -228 55 -353 64 -433 33 -49 -19 -20 -28 45 -15 67
14 173 7 293 -20 33 -8 101 -23 150 -34 50 -11 117 -24 151 -27 73 -9 174 9
174 31 0 19 -1 19 154 -26 166 -48 224 -77 286 -139 91 -91 118 -179 127 -411
6 -167 -3 -267 -38 -411 l-22 -86 26 -99 c43 -163 88 -456 112 -724 5 -53 20
-107 51 -186 73 -185 114 -391 134 -658 5 -73 7 -149 4 -167 -4 -23 3 -59 20
-109 15 -41 49 -151 77 -245 40 -137 55 -175 78 -196 15 -14 76 -43 136 -65
88 -32 119 -48 162 -87 56 -52 243 -291 243 -312 0 -21 -28 -37 -51 -30 -12 4
-62 45 -111 91 -94 90 -123 102 -134 57 -15 -59 49 -357 134 -623 41 -128 41
-150 2 -150 -26 0 -34 14 -71 124 -50 146 -119 281 -144 281 -29 0 -24 -45 24
-196 53 -170 66 -241 49 -277 -7 -15 -23 -28 -34 -30 -20 -3 -25 12 -68 185
-50 201 -72 263 -93 263 -16 0 -17 -16 -2 -25 5 -4 8 -19 4 -33 -3 -15 4 -90
15 -167 24 -172 25 -204 4 -212 -30 -11 -46 25 -75 167 -34 170 -56 250 -69
250 -6 0 -10 14 -10 30 0 17 -4 30 -9 30 -5 0 -12 -66 -15 -147 -8 -171 -11
-193 -31 -193 -19 0 -22 14 -40 169 -21 180 -47 294 -91 399 -76 184 -84 210
-84 313 0 88 -2 101 -30 150 -70 124 -98 194 -217 529 -36 102 -90 237 -120
302 -66 144 -92 262 -103 478 -4 85 -10 162 -13 170 -13 30 -80 469 -93 610
-8 80 -15 206 -17 280 l-2 135 47 85 c45 83 63 144 43 146 -5 0 -15 -18 -21
-40 -5 -23 -23 -61 -38 -85 -61 -96 -67 -154 -41 -465 8 -98 13 -181 11 -185
-2 -3 -16 -141 -31 -306 -27 -291 -27 -302 -11 -380 9 -44 23 -147 31 -230 29
-290 49 -425 116 -764 59 -304 71 -423 99 -996 24 -490 -1 -1120 -56 -1440
-28 -162 -29 -196 -11 -515 16 -299 19 -322 52 -450 102 -392 120 -518 120
-845 -1 -300 -6 -338 -104 -764 -118 -506 -123 -551 -117 -930 l6 -291 40
-185 c22 -102 47 -227 55 -277 17 -95 23 -277 11 -315 -4 -12 -23 -28 -45 -37
-30 -11 -41 -22 -46 -45 -10 -46 -43 -81 -103 -108 -30 -13 -71 -37 -91 -54
-34 -27 -41 -29 -65 -18 -20 9 -32 9 -51 1 -100 -46 -195 48 -195 192 0 23
-10 73 -21 111 -33 109 -30 273 9 495 17 96 39 238 47 315 22 193 49 363 86
540 40 191 41 288 5 440 -14 61 -39 178 -56 260 -17 83 -49 222 -71 310 -52
207 -59 342 -34 634 23 271 19 301 -56 445 -71 137 -123 287 -145 421 -13 82
-15 140 -9 320 9 290 -11 421 -120 785 -86 287 -98 356 -125 750 -9 134 -9
146 7 155 38 22 90 84 121 147 17 37 32 71 32 77 0 25 -18 8 -40 -39 -60 -128
-106 -170 -186 -170 -72 0 -107 27 -165 130 -45 78 -69 107 -69 82 0 -25 97
-176 131 -206 l40 -33 -11 -184 c-17 -291 -36 -391 -155 -834 -80 -300 -102
-473 -85 -672 23 -259 -35 -517 -170 -753 -27 -47 -51 -101 -55 -121 -4 -21 1
-122 11 -225 9 -104 17 -259 17 -344 l0 -155 -76 -330 c-42 -181 -87 -379
-101 -440 -42 -182 -35 -334 28 -550 15 -52 26 -114 26 -150 0 -83 23 -261 59
-462 69 -380 75 -477 36 -627 -14 -53 -25 -113 -25 -134 0 -60 -18 -107 -58
-151 -40 -45 -44 -46 -162 -37 -41 3 -73 12 -90 25 -14 10 -53 32 -86 49 -70
35 -94 60 -103 104 -5 24 -17 38 -51 58 l-45 27 3 129 c3 144 26 301 79 539
20 88 35 174 33 190 -7 53 -4 288 4 366 13 113 -13 275 -130 814 -36 165 -72
345 -80 400 -35 232 -35 513 1 720 8 50 40 200 70 335 30 135 62 299 71 365
24 175 21 423 -10 785 -51 607 -65 1016 -47 1395 20 422 50 679 130 1125 27
151 57 343 66 425 9 83 28 227 41 320 28 197 29 264 10 435 -8 69 -17 165 -21
213 -4 49 -10 101 -14 115 -5 15 -2 101 5 192 7 91 13 213 14 272 0 107 0 107
-41 185 -23 43 -47 96 -54 118 -12 41 -32 49 -27 11 1 -12 25 -66 52 -121 58
-117 58 -113 35 -413 -13 -181 -32 -316 -90 -657 -14 -84 -26 -200 -29 -290
-5 -176 -23 -255 -89 -395 -40 -85 -83 -197 -219 -565 -53 -144 -100 -245
-134 -291 -26 -34 -28 -41 -25 -123 3 -99 -18 -177 -94 -351 -49 -112 -57
-149 -80 -374 -9 -82 -18 -153 -21 -157 -10 -17 -34 -9 -39 14 -4 18 -13 191
-15 290 -1 15 -5 27 -10 27 -14 0 -46 -113 -75 -262 -14 -73 -30 -148 -36
-166 -12 -36 -38 -55 -59 -42 -12 7 -10 41 13 217 30 227 31 233 20 233 -17
-1 -47 -90 -94 -273 -27 -106 -49 -193 -49 -194 0 -2 -11 -3 -24 -3 -59 0 -47
111 43 390 26 80 28 97 17 108 -36 36 -82 -41 -156 -255 -45 -130 -54 -145
-84 -141 -32 5 -31 36 8 155 20 59 51 166 71 236 75 278 85 407 29 407 -7 0
-50 -38 -96 -84 -47 -47 -97 -88 -112 -92 -26 -6 -56 8 -56 29 0 5 26 44 57
86 31 42 74 99 96 128 79 105 141 150 269 192 79 26 128 57 145 91 20 41 122
389 138 473 8 44 15 124 15 180 0 124 19 262 61 445 34 150 60 228 94 282 16
25 24 59 29 120 22 263 82 650 123 797 l17 62 -28 113 c-35 138 -45 313 -26
479 20 181 62 272 159 344 67 49 141 77 339 131 377 101 476 154 543 289 27
56 33 81 40 177 4 62 8 126 8 143 1 29 2 29 74 -41 39 -39 86 -80 102 -91z"/>
<path d="M2153 11943 c-18 -9 -33 -23 -33 -30 0 -16 -2 -17 45 7 49 25 98 25
152 0 49 -22 66 -11 25 16 -38 25 -146 29 -189 7z"/>
<path d="M2632 11940 c-63 -29 -43 -41 27 -16 61 21 68 21 164 -11 31 -10 18
14 -17 31 -46 22 -122 20 -174 -4z"/>
<path d="M2167 11813 c-29 -12 -37 -20 -35 -37 3 -24 45 -35 146 -35 92 -1 75
15 -24 22 -91 7 -108 12 -84 27 23 15 118 12 150 -5 19 -10 31 -11 35 -5 9 15
-73 50 -115 49 -19 0 -52 -7 -73 -16z"/>
<path d="M2651 11819 c-34 -14 -52 -30 -45 -41 3 -5 17 -2 31 8 36 23 185 12
161 -12 -3 -3 -47 -8 -97 -11 -50 -3 -88 -10 -85 -14 8 -13 143 -10 184 4 50
17 44 39 -15 59 -56 19 -98 21 -134 7z"/>
<path d="M2310 11512 c0 -5 9 -17 19 -26 16 -14 26 -16 48 -9 22 8 37 5 67
-10 37 -20 39 -20 72 -2 19 10 44 15 60 12 27 -5 74 10 74 23 0 11 -119 5
-132 -7 -16 -17 -43 -16 -79 2 -19 11 -41 14 -64 9 -23 -4 -35 -2 -35 5 0 6
-7 11 -15 11 -8 0 -15 -4 -15 -8z"/>
<path d="M2376 11366 c-84 -31 -85 -62 -3 -104 64 -33 147 -33 221 1 68 31 73
55 19 88 -47 29 -177 37 -237 15z m210 -27 c39 -20 40 -35 4 -54 -71 -36 -202
-26 -239 19 -37 44 157 72 235 35z"/>
<path d="M2370 10765 c0 -20 47 -53 85 -61 46 -8 90 3 125 33 41 34 28 48 -17
18 -48 -33 -108 -33 -157 0 -26 17 -36 20 -36 10z"/>
<path d="M2208 10609 c-31 -4 -114 -22 -185 -38 -181 -43 -256 -53 -353 -49
-51 2 -86 -1 -88 -7 -1 -6 40 -11 106 -13 111 -3 163 5 417 63 124 28 227 32
265 10 30 -17 50 -19 50 -4 0 29 -123 52 -212 38z"/>
<path d="M1802 9523 c-16 -6 -42 -56 -42 -82 0 -11 12 -29 27 -41 33 -26 75
-21 110 12 42 39 23 118 -28 118 -26 0 -24 -13 4 -25 53 -24 20 -95 -45 -95
-47 0 -56 54 -14 89 27 22 20 37 -12 24z"/>
<path d="M3062 9514 c-31 -22 -30 -73 4 -105 32 -30 99 -33 120 -4 24 33 11
109 -21 121 -23 9 -31 -4 -13 -19 21 -17 32 -66 17 -83 -19 -23 -75 -18 -93 8
-23 32 -20 57 9 70 14 6 25 15 25 20 0 13 -24 9 -48 -8z"/>
<path d="M1630 9450 c0 -27 88 -103 154 -134 97 -46 164 -61 276 -60 98 0 180
18 253 55 54 28 36 42 -21 17 -78 -35 -142 -48 -237 -48 -152 0 -283 47 -368
132 -50 50 -57 55 -57 38z"/>
<path d="M3276 9414 c-152 -139 -408 -175 -613 -84 -25 11 -45 15 -49 9 -9
-15 96 -58 183 -75 121 -24 258 -5 379 52 73 35 194 146 157 144 -5 -1 -30
-21 -57 -46z"/>
<path d="M2280 8714 c-35 -25 -138 -115 -229 -198 -211 -193 -273 -244 -338
-273 -42 -20 -56 -22 -73 -13 -26 14 -37 6 -20 -15 7 -8 24 -15 39 -15 67 1
158 67 421 309 91 83 193 171 227 194 34 23 63 45 63 50 0 18 -32 4 -90 -39z"/>
<path d="M2610 8743 c1 -5 24 -25 53 -45 50 -37 111 -90 343 -302 168 -153
267 -210 328 -186 40 15 31 28 -17 23 -74 -9 -132 30 -352 234 -248 229 -357
314 -355 276z"/>
<path d="M2440 7947 c0 -8 9 -22 20 -32 20 -18 21 -18 42 3 24 24 18 42 -8 21
-14 -11 -17 -10 -25 4 -12 20 -29 22 -29 4z"/>
<path d="M3352 7520 c-55 -40 -117 -116 -263 -325 -148 -212 -239 -314 -312
-349 -38 -18 -48 -26 -35 -31 18 -7 67 15 116 54 50 39 137 148 263 331 72
104 146 197 201 252 88 90 102 120 30 68z"/>
<path d="M1570 7531 c0 -5 13 -19 29 -30 46 -33 148 -161 267 -336 67 -99 140
-191 189 -241 80 -81 149 -124 166 -107 6 6 -7 17 -33 29 -72 32 -173 145
-313 348 -153 224 -305 391 -305 337z"/>
<path d="M698 6891 c-45 -82 -126 -130 -220 -131 -38 0 -48 -4 -48 -16 0 -14
8 -16 57 -10 106 12 192 67 234 148 38 73 17 81 -23 9z"/>
<path d="M4220 6922 c0 -14 56 -96 81 -119 55 -50 229 -97 229 -61 0 12 -16
17 -66 21 -87 7 -148 44 -189 114 -26 46 -55 69 -55 45z"/>
<path d="M1624 4411 c-58 -26 -92 -80 -118 -183 -5 -21 -3 -28 8 -28 8 0 17
15 21 37 4 20 15 54 25 74 50 97 140 118 225 53 54 -41 84 -41 40 1 -36 33
-101 65 -135 65 -14 0 -43 -9 -66 -19z"/>
<path d="M3200 4409 c-45 -20 -90 -56 -90 -71 0 -14 28 -9 34 7 9 24 85 55
134 55 75 0 132 -61 148 -159 4 -24 11 -40 18 -38 23 8 -7 114 -47 162 -54 66
-118 80 -197 44z"/>
<path d="M1920 3923 c-1 -30 -36 -99 -66 -126 -35 -33 -119 -52 -158 -37 -33
12 -46 13 -46 1 0 -18 61 -34 112 -28 72 9 124 46 154 110 25 54 31 97 14 97
-5 0 -10 -8 -10 -17z"/>
<path d="M3020 3908 c1 -59 93 -162 155 -174 43 -8 113 0 128 15 18 18 4 21
-41 9 -84 -21 -163 23 -201 112 -20 47 -41 66 -41 38z"/>
</g>
</svg>
