<?xml version="1.0" standalone="no"?>
<!DOCTYPE svg PUBLIC "-//W3C//DTD SVG 20010904//EN"
 "http://www.w3.org/TR/2001/REC-SVG-20010904/DTD/svg10.dtd">
<svg version="1.0" xmlns="http://www.w3.org/2000/svg"
 width="1000.000000pt" height="1080.000000pt" viewBox="500 100 600.000000 1080.000000"
 preserveAspectRatio="xMidYMid meet">
<metadata>
Created by potrace 1.15, written by Peter Selinger 2001-2017
</metadata>
<g transform="translate(0.000000,1280.000000) scale(0.100000,-0.100000)"
fill="#000000" stroke="none">
<path d="M7803 12790 c-170 -31 -315 -135 -388 -280 -60 -119 -90 -302 -79
-481 l7 -107 -34 -41 c-28 -36 -34 -52 -37 -106 -4 -55 0 -73 22 -119 34 -69
99 -130 132 -123 32 6 56 -25 86 -111 19 -56 23 -87 23 -192 0 -122 -1 -127
-33 -192 -61 -125 -160 -187 -592 -368 -164 -69 -252 -121 -326 -192 -67 -64
-114 -146 -139 -242 -36 -142 -38 -448 -4 -649 10 -62 10 -89 -4 -173 -21
-129 -63 -470 -81 -654 -12 -130 -17 -153 -49 -220 -20 -41 -47 -114 -61 -161
-46 -161 -86 -458 -86 -640 0 -69 -6 -103 -30 -175 -17 -49 -49 -152 -71 -229
-23 -80 -49 -149 -61 -162 -11 -11 -61 -36 -110 -54 -162 -58 -223 -111 -378
-329 -78 -108 -82 -129 -30 -150 44 -18 81 1 177 93 73 70 82 76 85 55 10 -69
-32 -263 -118 -546 -47 -153 -55 -188 -45 -208 8 -18 18 -24 44 -24 47 0 60
19 97 135 38 117 90 234 113 254 13 10 12 -1 -8 -60 -42 -124 -86 -315 -83
-360 4 -54 43 -89 82 -71 21 9 29 32 70 194 47 184 50 179 21 -32 -12 -92 -12
-108 1 -127 16 -25 51 -30 77 -10 12 8 30 70 58 197 22 101 41 186 43 188 2 2
7 -50 11 -115 3 -65 8 -124 10 -130 6 -18 50 -16 68 1 9 9 19 57 26 128 24
219 41 308 78 387 76 168 96 238 99 354 3 90 7 114 25 138 67 95 311 739 375
992 24 92 26 123 28 317 2 213 3 216 33 295 30 79 61 230 84 417 20 156 26
130 49 -215 16 -247 14 -427 -9 -567 -11 -69 -32 -222 -46 -340 -28 -230 -54
-388 -110 -680 -53 -273 -74 -595 -82 -1240 -7 -550 9 -841 64 -1130 13 -71
14 -132 9 -375 -8 -330 -15 -405 -56 -560 -16 -60 -38 -144 -49 -186 -64 -242
-90 -521 -72 -771 14 -198 35 -331 95 -614 128 -601 142 -701 127 -917 -9
-123 -9 -182 -1 -228 10 -55 9 -71 -14 -158 -50 -192 -87 -418 -101 -626 -8
-112 1 -141 55 -163 29 -12 41 -25 46 -45 7 -32 50 -87 68 -87 7 0 21 -9 31
-20 10 -11 26 -20 36 -20 9 0 36 -16 59 -35 42 -35 77 -44 96 -25 7 7 21 5 43
-6 63 -31 140 7 182 89 12 23 24 74 29 121 5 45 16 104 26 131 30 90 24 273
-19 530 -20 121 -43 288 -52 370 -20 187 -27 233 -72 420 -55 232 -52 269 62
770 108 474 107 471 106 648 -1 87 -8 222 -16 300 -21 197 -20 255 6 292 38
56 116 219 147 307 54 151 62 221 62 518 0 239 3 284 25 414 29 175 43 230
101 408 64 198 79 295 120 796 5 66 8 74 31 83 38 14 71 11 82 -9 5 -9 14 -89
21 -177 24 -335 49 -479 129 -728 97 -301 102 -334 111 -762 7 -308 10 -360
29 -433 26 -103 78 -230 136 -332 68 -121 71 -138 51 -336 -9 -94 -17 -244
-17 -335 -1 -180 -1 -178 101 -634 117 -526 118 -538 66 -770 -39 -172 -51
-248 -66 -395 -6 -58 -29 -222 -51 -365 -54 -343 -59 -443 -29 -555 12 -47 26
-116 30 -155 8 -80 35 -141 80 -179 41 -34 73 -41 119 -28 20 6 52 9 72 6 28
-5 41 -1 65 18 16 13 59 39 96 57 77 38 91 52 107 103 9 26 20 39 41 46 54 19
65 52 64 187 -1 102 -9 158 -54 380 l-53 260 -4 235 c-9 451 -10 449 122 1040
93 419 100 466 100 730 0 137 -5 260 -13 315 -23 154 -80 426 -112 535 -27 91
-33 135 -45 325 -29 458 -29 456 -11 541 20 101 41 284 58 499 17 234 17 1134
0 1270 -7 55 -17 179 -22 275 -9 183 -22 265 -89 595 -25 121 -47 267 -57 370
-8 94 -28 262 -44 375 -16 113 -32 248 -35 300 -7 99 7 361 29 535 14 110 17
105 36 -45 7 -52 32 -171 57 -265 43 -164 44 -177 53 -380 12 -300 26 -357
204 -835 104 -280 166 -424 206 -480 16 -23 20 -44 20 -110 0 -103 16 -166 90
-349 62 -153 60 -143 90 -440 11 -101 20 -121 54 -121 35 0 46 20 47 84 1 34
4 88 8 121 l6 60 43 -190 c44 -200 52 -215 103 -215 48 0 52 16 34 152 -9 67
-21 140 -26 162 -6 21 -8 40 -5 43 7 8 9 2 55 -186 22 -90 46 -170 54 -178 21
-22 65 -6 83 30 23 43 12 118 -42 295 -24 81 -43 154 -41 162 4 21 52 -82 102
-224 24 -66 46 -128 50 -137 17 -43 86 -40 106 4 9 20 3 49 -35 166 -85 258
-152 591 -120 591 5 0 41 -32 79 -71 71 -72 135 -112 164 -102 25 9 51 35 51
51 0 22 -216 307 -262 346 -21 19 -74 46 -116 61 -172 62 -207 98 -242 245 -7
30 -32 116 -55 190 -39 125 -43 146 -49 282 -13 307 -83 653 -158 775 -15 25
-24 76 -39 220 -25 244 -44 405 -70 578 -20 137 -20 183 0 275 6 25 10 128 11
230 0 234 -17 358 -64 456 -74 156 -185 236 -516 369 -177 71 -315 142 -402
208 -112 84 -140 147 -139 314 0 101 16 175 57 255 22 42 29 49 65 54 81 13
144 113 144 230 0 66 -3 75 -32 112 l-33 41 0 123 c0 422 -119 641 -390 723
-66 19 -272 28 -347 15z m307 -32 c91 -17 175 -61 238 -125 113 -114 157 -257
169 -548 6 -166 7 -170 35 -210 16 -23 32 -59 35 -81 11 -83 -71 -224 -130
-224 -39 0 -73 -35 -100 -104 -70 -174 -57 -394 29 -494 72 -84 217 -168 482
-278 208 -86 284 -124 363 -183 164 -121 220 -306 205 -681 -3 -91 -12 -191
-20 -224 -13 -50 -13 -71 -1 -152 26 -167 63 -474 81 -654 16 -164 19 -180 54
-255 73 -154 123 -413 141 -715 10 -168 14 -194 44 -285 19 -55 44 -138 55
-185 44 -173 82 -221 218 -270 145 -52 161 -65 287 -234 63 -84 115 -160 115
-170 0 -9 -7 -19 -15 -22 -32 -13 -70 10 -154 91 -49 47 -95 85 -103 85 -9 0
-19 -12 -22 -26 -16 -62 49 -369 127 -603 25 -74 43 -140 40 -147 -7 -19 -41
-28 -57 -15 -7 6 -32 67 -56 136 -72 206 -120 289 -151 258 -13 -13 -3 -61 51
-228 36 -112 50 -236 30 -260 -7 -8 -20 -15 -30 -15 -15 0 -25 31 -60 173 -24
94 -50 190 -60 212 -9 22 -20 48 -23 58 -14 40 -22 5 -16 -70 6 -70 31 -254
43 -325 4 -21 1 -28 -15 -33 -13 -4 -27 -1 -36 8 -8 8 -32 93 -53 189 -21 95
-45 191 -54 212 -9 21 -16 47 -16 57 0 11 -4 19 -8 19 -9 0 -22 -163 -22 -266
0 -61 -7 -84 -26 -84 -18 0 -21 14 -44 228 -19 179 -21 185 -75 316 -75 184
-96 264 -94 357 2 72 0 79 -39 142 -52 87 -122 265 -297 753 -64 178 -75 242
-85 484 -8 213 -9 217 -58 410 -66 256 -86 420 -79 640 6 174 12 210 66 342
35 89 50 158 32 158 -6 0 -13 -12 -16 -27 -4 -16 -24 -77 -46 -138 -50 -139
-59 -191 -60 -334 0 -64 -4 -120 -9 -126 -22 -26 -53 -391 -54 -620 -1 -211 2
-248 31 -440 18 -115 37 -273 43 -350 7 -88 31 -242 65 -415 73 -368 74 -377
86 -590 5 -102 14 -225 19 -275 38 -371 11 -1312 -46 -1640 -29 -167 -29 -189
-8 -530 18 -275 26 -352 42 -401 59 -175 127 -563 138 -784 12 -230 -12 -407
-119 -885 -114 -507 -117 -534 -106 -1015 5 -206 7 -225 52 -445 85 -422 85
-528 1 -555 -24 -8 -36 -19 -40 -38 -12 -48 -35 -84 -49 -78 -8 3 -28 -8 -44
-24 -16 -17 -38 -30 -49 -30 -10 0 -27 -9 -38 -21 -29 -33 -51 -41 -74 -29
-15 8 -32 7 -69 -7 l-49 -17 -40 26 c-52 35 -83 100 -93 197 -4 42 -15 99 -24
126 -29 86 -23 234 23 530 23 143 48 328 57 410 9 83 34 231 55 331 21 99 42
208 45 241 8 69 -6 151 -96 558 -106 477 -109 493 -109 649 0 77 7 204 15 281
8 77 15 172 15 212 0 69 -2 76 -66 198 -142 272 -154 330 -164 785 -9 408 -14
438 -103 716 -83 257 -108 386 -127 664 -5 80 -13 167 -16 193 l-6 48 43 -22
c36 -19 64 -24 157 -27 68 -3 112 0 112 5 0 6 -46 12 -102 15 -103 6 -164 22
-200 55 -39 35 -66 184 -75 406 -5 153 -23 188 -23 45 0 -120 -26 -333 -49
-400 -16 -45 -25 -56 -62 -75 -49 -24 -145 -43 -226 -43 -29 0 -53 -4 -53 -10
0 -25 224 -4 284 27 l29 15 -7 -118 c-19 -335 -49 -521 -115 -727 -50 -155
-76 -263 -107 -442 -14 -80 -17 -152 -15 -353 1 -184 -3 -277 -13 -345 -25
-151 -91 -325 -178 -471 -50 -83 -51 -96 -24 -374 23 -242 18 -408 -18 -572
-14 -63 -52 -234 -85 -380 -104 -458 -107 -500 -52 -725 38 -153 56 -262 76
-450 9 -82 30 -231 47 -330 38 -224 48 -431 23 -515 -9 -30 -20 -93 -25 -139
-6 -48 -20 -104 -31 -129 -34 -70 -101 -99 -164 -70 -20 9 -31 8 -50 -2 -22
-12 -28 -10 -62 16 -20 16 -55 38 -78 49 -27 14 -39 26 -37 37 2 11 -3 18 -13
18 -8 0 -15 -6 -15 -12 -1 -22 -50 42 -50 65 0 31 -11 44 -42 52 -51 13 -63
39 -60 123 5 160 43 410 96 632 20 88 22 117 21 400 -2 345 3 308 -124 910
-89 424 -96 479 -96 790 0 304 11 389 90 682 57 214 75 313 75 407 0 42 5 171
11 286 12 207 12 212 -14 375 -36 220 -45 308 -57 545 -17 341 -11 725 20
1285 14 255 24 339 65 550 51 263 73 398 111 695 18 148 41 315 50 370 14 88
15 130 4 350 -6 138 -18 304 -25 370 -8 66 -19 167 -25 225 -25 243 -33 289
-61 370 -17 47 -38 111 -47 143 -9 31 -20 57 -24 57 -17 0 -7 -54 25 -138 78
-203 94 -384 58 -647 -34 -244 -60 -373 -88 -438 -25 -59 -26 -73 -33 -302 -7
-212 -10 -251 -33 -335 -63 -233 -301 -858 -361 -946 -34 -50 -35 -54 -29
-121 7 -86 -17 -189 -77 -323 -57 -128 -76 -205 -98 -400 -16 -152 -19 -165
-38 -168 -20 -3 -21 3 -29 130 -4 73 -7 150 -7 171 0 45 -18 45 -30 1 -5 -16
-29 -119 -53 -229 -25 -109 -51 -206 -59 -213 -22 -22 -46 -7 -46 29 0 17 9
93 19 168 25 175 30 240 19 247 -4 3 -11 -3 -14 -13 -4 -10 -15 -36 -24 -58
-10 -22 -35 -110 -55 -195 -20 -85 -40 -165 -45 -177 -12 -28 -31 -29 -55 -3
-17 19 -17 24 -2 103 9 45 30 129 47 187 53 176 54 180 42 192 -32 32 -108
-96 -163 -274 -32 -102 -50 -131 -78 -126 -28 5 -24 44 23 195 90 295 137 516
123 575 -13 49 -33 41 -121 -47 -46 -46 -95 -87 -109 -90 -35 -9 -61 -3 -65
16 -3 18 156 235 219 298 43 42 146 98 253 136 64 23 91 54 111 124 8 31 40
133 69 226 53 168 53 172 65 360 18 316 65 549 140 710 30 64 40 100 45 161
13 149 48 449 75 635 25 176 26 190 12 265 -21 118 -20 516 1 611 32 138 98
239 207 312 75 51 147 86 326 161 425 175 535 268 567 473 18 120 -11 276 -72
375 -17 27 -25 32 -59 32 -34 0 -44 6 -70 39 -86 108 -92 208 -19 288 18 19
20 38 22 215 2 214 12 271 69 387 37 75 121 171 183 207 129 76 307 98 494 62z
m-160 -6286 c0 -22 7 -61 15 -88 8 -27 15 -52 15 -55 0 -4 -18 -9 -41 -11 -45
-4 -43 -11 -20 77 6 22 11 57 11 78 0 20 5 37 10 37 6 0 10 -17 10 -38z"/>
<path d="M8502 10614 c-12 -8 -22 -21 -22 -28 0 -8 -16 -67 -37 -131 l-36
-117 17 -97 c19 -113 20 -214 5 -446 -13 -184 -7 -237 32 -276 58 -58 227 33
275 146 8 19 27 82 43 142 44 161 61 193 154 292 122 128 144 205 88 310 l-21
41 53 0 c58 0 77 12 77 46 0 30 -40 60 -101 74 -68 17 -231 8 -286 -15 l-43
-17 -40 34 c-34 30 -96 58 -126 58 -5 0 -20 -7 -32 -16z m121 -44 c26 -16 47
-32 47 -34 0 -3 -34 -28 -75 -56 -41 -28 -75 -55 -75 -61 0 -16 20 -6 102 49
97 64 176 87 298 86 100 -1 166 -18 184 -48 8 -12 7 -19 -3 -25 -25 -16 -115
-4 -152 19 -47 29 -80 22 -267 -56 -155 -66 -203 -97 -217 -141 -10 -36 18
-28 35 10 13 28 34 40 180 104 190 83 231 90 275 46 66 -67 87 -163 50 -237
-10 -21 -56 -79 -101 -127 -90 -96 -102 -121 -149 -295 -45 -163 -84 -222
-175 -263 -60 -27 -84 -26 -109 5 -18 23 -21 41 -21 131 0 58 5 169 11 247 8
110 8 163 -2 232 -24 172 -23 208 5 287 14 40 30 91 36 115 10 39 13 42 43 42
19 0 53 -12 80 -30z"/>
<path d="M7263 10595 c-28 -14 -58 -34 -67 -44 -16 -18 -18 -18 -74 1 -76 26
-206 28 -287 4 -74 -22 -85 -31 -85 -67 0 -36 30 -53 76 -44 19 3 38 4 43 1 4
-3 -3 -36 -15 -73 -13 -37 -24 -87 -24 -110 0 -38 7 -50 59 -110 32 -38 75
-84 96 -103 51 -48 78 -105 113 -242 47 -178 89 -245 184 -292 62 -31 118 -34
142 -7 27 30 35 127 26 289 -14 223 -12 371 5 428 22 73 19 109 -20 224 -19
57 -35 112 -35 121 0 26 -28 49 -59 49 -15 0 -50 -11 -78 -25z m98 -5 c10 -6
19 -21 19 -33 0 -12 16 -67 35 -122 39 -112 41 -135 20 -194 -18 -53 -22 -176
-12 -441 8 -217 4 -265 -25 -283 -23 -15 -101 10 -153 49 -54 42 -85 103 -125
254 -42 156 -57 183 -157 286 -119 124 -118 121 -103 197 20 105 67 172 127
183 28 5 50 -2 121 -38 48 -25 118 -56 157 -68 70 -23 125 -64 125 -94 0 -9 5
-16 10 -16 20 0 9 40 -20 74 -24 26 -51 41 -113 62 -45 14 -114 44 -153 65
-84 46 -133 50 -182 17 -28 -19 -44 -22 -98 -20 -54 3 -64 7 -64 22 0 31 100
60 206 60 111 0 225 -42 325 -121 20 -16 42 -29 48 -29 26 0 6 21 -61 66 -40
27 -75 50 -78 52 -3 2 11 17 30 33 29 25 47 33 98 48 2 1 12 -4 23 -9z"/>
<path d="M8054 7227 c-33 -24 -72 -62 -88 -86 -26 -37 -31 -40 -39 -24 -25 47
-131 133 -164 133 -25 0 -12 -15 43 -49 64 -39 114 -101 114 -143 0 -39 21
-32 33 11 8 33 93 126 151 167 19 12 26 23 19 27 -6 4 -37 -13 -69 -36z"/>
<path d="M7277 4443 c-3 -4 -1 -60 4 -123 5 -63 8 -161 7 -217 -1 -60 2 -102
8 -100 12 3 9 426 -4 439 -5 5 -12 6 -15 1z"/>
<path d="M8586 4433 c-21 -65 -26 -433 -6 -433 4 0 10 87 14 193 3 105 9 207
12 225 7 34 -10 46 -20 15z"/>
<path d="M8712 3745 c-54 -56 -83 -98 -118 -170 -25 -53 -44 -99 -40 -102 10
-10 34 16 41 45 13 52 78 154 141 222 35 37 64 70 64 74 0 18 -24 -1 -88 -69z"/>
<path d="M7080 3800 c0 -5 21 -29 46 -52 57 -52 116 -139 155 -225 16 -35 34
-61 39 -58 25 15 -71 186 -154 273 -66 69 -86 84 -86 62z"/>
<path d="M8804 1757 c-8 -21 0 -237 9 -240 4 -1 9 55 11 126 2 74 0 127 -5
127 -5 0 -12 -6 -15 -13z"/>
<path d="M7053 1630 c0 -113 7 -148 21 -97 3 12 6 56 6 97 0 41 -3 85 -6 98
-14 50 -21 15 -21 -98z"/>
<path d="M7103 1643 c7 -108 14 -143 29 -143 7 0 8 15 4 38 -4 20 -9 74 -13
120 -3 45 -10 82 -16 82 -6 0 -8 -35 -4 -97z"/>
<path d="M8757 1657 c-3 -45 -10 -94 -16 -109 -14 -37 6 -48 20 -11 15 37 25
203 12 203 -6 0 -13 -37 -16 -83z"/>
<path d="M8690 1448 c-39 -27 -64 -59 -85 -110 -22 -54 1 -59 25 -5 28 63 55
94 96 107 72 24 186 -62 216 -162 12 -42 28 -50 28 -15 0 32 -53 119 -92 152
-69 58 -134 69 -188 33z"/>
<path d="M7055 1439 c-74 -39 -145 -128 -145 -182 0 -32 19 -17 32 25 15 52
74 113 135 140 73 32 116 11 162 -79 23 -46 41 -63 41 -38 0 28 -38 91 -75
123 -43 39 -91 42 -150 11z"/>
</g>
</svg>
